<svg xmlns="http://www.w3.org/2000/svg" width="45" height="45" viewBox="0 0 45 45"><g><g><path fill="#3d4a81" d="M22.5 0C34.926 0 45 10.073 45 22.5 45 34.926 34.926 45 22.5 45S0 34.926 0 22.5C0 10.073 10.074 0 22.5 0z"/></g><g><path fill="#fff" d="M31.125 14.991c1.034 0 1.875.84 1.875 1.873v11.252a1.876 1.876 0 0 1-1.875 1.873h-16.25A1.875 1.875 0 0 1 13 28.116V16.864c0-1.032.841-1.873 1.875-1.873zm-16.25 1.25a.634.634 0 0 0-.24.047L23 23.538l8.364-7.25a.634.634 0 0 0-.24-.048zm16.25 12.499c.345 0 .625-.28.625-.624V17.61l-8.34 7.226a.62.62 0 0 1-.41.152.62.62 0 0 1-.41-.152l-8.34-7.226v10.505c0 .344.28.624.625.624z"/></g></g></svg>