<svg xmlns="http://www.w3.org/2000/svg" width="15" height="24" viewBox="0 0 15 24"><g><g><path fill="#ff613f" d="M4.102.565h6.232c.041.014.082.036.124.04 2.21.294 3.874 2.15 3.879 4.378.01 4.662.008 9.322 0 13.983a4.406 4.406 0 0 1-2.83 4.102c-.376.142-.781.211-1.173.316H4.102c-.042-.016-.082-.034-.124-.042-2.199-.29-3.873-2.148-3.879-4.352C.088 14.314.09 9.637.1 4.96.102 3.101 1.318 1.424 3.074.827 3.407.71 3.759.65 4.102.565zM1.876 11.972v6.86c0 1.603 1.16 2.766 2.764 2.766h5.14c1.62 0 2.78-1.155 2.78-2.773V5.127c0-1.62-1.157-2.778-2.775-2.778H4.667c-1.636 0-2.79 1.154-2.791 2.784v6.84zm5.343-6.057c-.296 0-.592.004-.888-.002-.506-.012-.893-.398-.893-.885 0-.495.385-.889.89-.895a91.423 91.423 0 0 1 1.777 0 .884.884 0 0 1 .892.89.89.89 0 0 1-.889.89c-.296.006-.592.002-.889.002zm.009 12.12c.289 0 .578-.003.866 0 .52.009.909.4.904.9-.005.492-.392.873-.902.879-.585.006-1.17.006-1.755 0-.518-.006-.908-.398-.903-.897.005-.492.392-.873.901-.88.296-.005.593-.001.889-.001z"/></g></g></svg>