<svg xmlns="http://www.w3.org/2000/svg" width="50" height="50" viewBox="0 0 50 50"><g><g><path fill="#338fec" d="M25 0c13.807 0 25 11.193 25 25S38.807 50 25 50 0 38.807 0 25 11.193 0 25 0z"/></g><g><path fill="#fff" d="M34.581 17.202c-.106.497-.219.992-.319 1.49-.667 3.316-1.331 6.632-1.996 9.949-.301 1.496-.604 2.996-.9 4.496-.162.824-1.164 1.219-1.839.71a10889.5 10889.5 0 0 1-7.34-5.555c-.03-.023-.059-.051-.105-.092a7698.518 7698.518 0 0 0 9.121-8.125c.123-.11.237-.235.32-.377.105-.174.009-.314-.198-.27-.184.035-.37.114-.53.213-1.395.867-2.783 1.742-4.173 2.615-2.39 1.503-4.781 3.003-7.169 4.508a.423.423 0 0 1-.407.044c-1.386-.465-2.775-.927-4.163-1.386-.396-.132-.717-.35-.883-.749v-.278c.172-.323.462-.499.792-.629 5.9-2.288 11.801-4.577 17.703-6.863.385-.15.775-.294 1.175-.393.48-.12.729.016.911.414v.278z"/></g></g></svg>