<svg xmlns="http://www.w3.org/2000/svg" width="45" height="45" viewBox="0 0 45 45"><g><g><path fill="#64bb58" d="M22.5 0C34.926 0 45 10.074 45 22.5S34.926 45 22.5 45 0 34.926 0 22.5C0 10.073 10.074 0 22.5 0z"/></g><g><path fill="#fff" d="M30.875 14.112A10.604 10.604 0 0 1 34 21.658c0 2.848-1.11 5.529-3.125 7.544a10.611 10.611 0 0 1-7.543 3.127c-1.7 0-3.389-.411-4.893-1.186l-5.123 1.792a.987.987 0 0 1-1.025-.236.984.984 0 0 1-.233-1.027l1.793-5.121a10.703 10.703 0 0 1-1.187-4.893c0-2.85 1.11-5.53 3.124-7.546a10.653 10.653 0 0 1 7.543-3.121 10.6 10.6 0 0 1 7.544 3.121zm-.912 14.179a9.324 9.324 0 0 0 2.746-6.633 9.322 9.322 0 0 0-2.746-6.631 9.312 9.312 0 0 0-6.631-2.746h-.001c-2.505 0-4.86.974-6.63 2.746a9.323 9.323 0 0 0-2.747 6.631c0 1.531.379 3.054 1.096 4.402.13.245.152.533.062.793l-1.63 4.655 4.655-1.63a.991.991 0 0 1 .792.063 9.42 9.42 0 0 0 4.403 1.094c2.504 0 4.86-.972 6.63-2.744zm-1.22-4.233a1.258 1.258 0 0 1 0 1.78l-1.157 1.159c-.348.347-.828.52-1.408.52-.525 0-1.133-.146-1.8-.43-1.222-.52-2.564-1.48-3.78-2.695-1.215-1.218-2.173-2.56-2.696-3.779-.603-1.406-.57-2.548.093-3.212l1.157-1.155a1.258 1.258 0 0 1 1.78 0l1.447 1.448a1.26 1.26 0 0 1 0 1.78l-.537.536a7.83 7.83 0 0 0 3.137 3.138l.537-.538a1.264 1.264 0 0 1 1.78 0zm-.935.888l-1.402-1.402-.672.674a.993.993 0 0 1-1.146.183 9.1 9.1 0 0 1-3.998-3.998.986.986 0 0 1 .182-1.147l.672-.673-1.402-1.403-1.135 1.135c-.189.189-.255.772.18 1.79.461 1.073 1.321 2.273 2.424 3.375 1.102 1.101 2.3 1.962 3.374 2.42 1.018.437 1.599.372 1.788.183z"/></g></g></svg>