<svg xmlns="http://www.w3.org/2000/svg" width="50" height="50" viewBox="0 0 50 50"><g><g><path fill="#25d366" d="M25 0c13.807 0 25 11.193 25 25S38.807 50 25 50 0 38.807 0 25 11.193 0 25 0z"/></g><g><path fill="#fff" d="M37.123 24.902c-.003 6.422-5.25 11.647-11.696 11.647h-.005a11.737 11.737 0 0 1-5.59-1.419l-6.2 1.622 1.66-6.037a11.576 11.576 0 0 1-1.561-5.821c.002-6.42 5.249-11.642 11.696-11.642 3.128 0 6.065 1.214 8.273 3.414a11.548 11.548 0 0 1 3.423 8.236zm-1.975 0a9.602 9.602 0 0 0-2.845-6.844 9.665 9.665 0 0 0-6.873-2.839c-5.362 0-9.723 4.339-9.725 9.675a9.632 9.632 0 0 0 1.486 5.152l.232.365-.982 3.572 3.679-.96.355.209a9.742 9.742 0 0 0 4.948 1.352h.004c5.358 0 9.719-4.342 9.721-9.682zm-3.83 2.769c.074.122.074.706-.17 1.386-.243.68-1.41 1.303-1.972 1.388-.504.073-1.14.1-1.84-.119a16.534 16.534 0 0 1-1.667-.617c-2.931-1.257-4.846-4.198-4.992-4.391-.146-.194-1.193-1.575-1.193-3.006 0-1.44.755-2.133 1.022-2.43.268-.293.585-.366.78-.366.195 0 .39.004.56.012.18.01.42-.065.657.497.244.582.828 2.016.901 2.164.073.144.122.314.025.507-.098.195-.414.607-.73.995-.13.164-.3.304-.13.596.172.292.758 1.244 1.627 2.018 1.116.988 2.058 1.293 2.35 1.441.292.146.462.122.633-.075.17-.191.73-.845.926-1.141.194-.29.39-.239.657-.142.268.093 1.705.798 1.997.946.292.146.487.217.56.337z"/></g></g></svg>