<svg xmlns="http://www.w3.org/2000/svg" width="21" height="21" viewBox="0 0 21 21"><g><g><path fill="#64bb58" d="M13.085 20.632a21.411 21.411 0 0 1-7.772-4.956A21.4 21.4 0 0 1 .359 7.905a5.806 5.806 0 0 1-.297-2.853A5.962 5.962 0 0 1 3.123.688a5.86 5.86 0 0 1 2.8-.701c.31 0 .577.218.642.521l1.03 4.808a.66.66 0 0 1-.178.602l-1.76 1.76a17.292 17.292 0 0 0 7.656 7.654l1.76-1.759a.66.66 0 0 1 .601-.18l4.807 1.033a.655.655 0 0 1 .519.64c0 .995-.236 1.936-.7 2.8a5.99 5.99 0 0 1-1.825 2.05 5.928 5.928 0 0 1-3.383 1.075c-.677 0-1.35-.118-2.007-.36zM5.4 1.33a4.544 4.544 0 0 0-3.25 1.938 4.519 4.519 0 0 0-.557 4.187 19.898 19.898 0 0 0 11.941 11.941 4.52 4.52 0 0 0 4.19-.553 4.557 4.557 0 0 0 1.936-3.253l-3.91-.838-1.839 1.84a.652.652 0 0 1-.743.128A18.572 18.572 0 0 1 4.27 7.822a.656.656 0 0 1 .13-.743l1.838-1.838z"/></g></g></svg>